# xmcd
#
# Track frame offsets: 
#        150
#        21109
#        40763
#        62809
#        80283
#        107221
#        127540
#        148145
#        166847
#        183962
#        204838
#
# Disc length: 3017 seconds
#
# Revision: 0
# Processed by: cddbd v1.5.2PL0 Copyright (c) Steve Scherf et al.
# Submitted via: ExactAudioCopy v1.2
#
DISCID=850bc70b
DTITLE=David Brinston - Kitty Whipped
DYEAR=2018
DGENRE=Blues
TTITLE0=Kitty Whipped
TTITLE1=Nothing Like Good Sex
TTITLE2=Club Booty
TTITLE3=I'll Do Me a Big Girl
TTITLE4=I'm Taking a Stand
TTITLE5=Daisy Dukes with Thigh High Boots
TTITLE6=Sexy and You Know It
TTITLE7=Gonna Have a Good Time
TTITLE8=Buckle Up
TTITLE9=I Want to Show You Girl
TTITLE10=Club Booty (Zydeco Remix)
EXTD=
EXTT0=
EXTT1=
EXTT2=
EXTT3=
EXTT4=
EXTT5=
EXTT6=
EXTT7=
EXTT8=
EXTT9=
EXTT10=
PLAYORDER=
